/* XPM */
static char * digitF_xpm[] = {
/* width height ncolors cpp [x_hot y_hot] */
"25 35 2 1 0 0",
/* colors */
" 	s iconColor1	m black	c black",
".	s iconColor3	m black	c red",
/* pixels */
"                         ",
"      .............      ",
"     ...............     ",
"      .............      ",
"   .                 .   ",
"  ...               ...  ",
"  ...               ...  ",
"  ...               ...  ",
"  ...               ...  ",
"  ...               ...  ",
"  ...               ...  ",
"  ...               ...  ",
"  ...               ...  ",
"  ...               ...  ",
"  ...               ...  ",
"   .                 .   ",
"      .............      ",
"     ...............     ",
"   .  .............  .   ",
"  ...               ...  ",
"  ...               ...  ",
"  ...               ...  ",
"  ...               ...  ",
"  ...               ...  ",
"  ...               ...  ",
"  ...               ...  ",
"  ...               ...  ",
"  ...               ...  ",
"  ...               ...  ",
"  ...               ...  ",
"   .                 .   ",
"      .............      ",
"     ...............     ",
"      .............      ",
"                         "};
